<svg width="117" height="48" viewBox="0 0 117 48" fill="none" xmlns="http://www.w3.org/2000/svg">
<g filter="url(#filter0_d_10055_25271)">
<mask id="mask0_10055_25271" style="mask-type:alpha" maskUnits="userSpaceOnUse" x="6" y="7" width="36" height="35">
<path fill-rule="evenodd" clip-rule="evenodd" d="M14.7891 9.22162C14.7891 9.65151 15.1376 10 15.5674 10H17.0107C17.4406 10 17.7891 9.65151 17.7891 9.22162V7.77838C17.7891 7.34849 17.4406 7 17.0107 7H15.5674C15.1376 7 14.7891 7.34849 14.7891 7.77838V9.22162Z" fill="white"/>
<path fill-rule="evenodd" clip-rule="evenodd" d="M18.7891 9.22162C18.7891 9.65151 19.1376 10 19.5674 10H21.0107C21.4406 10 21.7891 9.65151 21.7891 9.22162V7.77838C21.7891 7.34849 21.4406 7 21.0107 7H19.5674C19.1376 7 18.7891 7.34849 18.7891 7.77838V9.22162Z" fill="white"/>
<path fill-rule="evenodd" clip-rule="evenodd" d="M22.7891 9.22162C22.7891 9.65151 23.1376 10 23.5674 10H25.0107C25.4406 10 25.7891 9.65151 25.7891 9.22162V7.77838C25.7891 7.34849 25.4406 7 25.0107 7H23.5674C23.1376 7 22.7891 7.34849 22.7891 7.77838V9.22162Z" fill="white"/>
<path fill-rule="evenodd" clip-rule="evenodd" d="M26.7891 9.22162C26.7891 9.65151 27.1376 10 27.5674 10H29.0107C29.4406 10 29.7891 9.65151 29.7891 9.22162V7.77838C29.7891 7.34849 29.4406 7 29.0107 7H27.5674C27.1376 7 26.7891 7.34849 26.7891 7.77838V9.22162Z" fill="white"/>
<path fill-rule="evenodd" clip-rule="evenodd" d="M30.7891 9.22162C30.7891 9.65151 31.1376 10 31.5674 10H33.0107C33.4406 10 33.7891 9.65151 33.7891 9.22162V7.77838C33.7891 7.34849 33.4406 7 33.0107 7H31.5674C31.1376 7 30.7891 7.34849 30.7891 7.77838V9.22162Z" fill="white"/>
<path fill-rule="evenodd" clip-rule="evenodd" d="M10.7891 13.2217C10.7891 13.6516 11.1376 14.0001 11.5674 14.0001H13.0107C13.4406 14.0001 13.7891 13.6516 13.7891 13.2217V11.7785C13.7891 11.3486 13.4406 11.0001 13.0107 11.0001H11.5674C11.1376 11.0001 10.7891 11.3486 10.7891 11.7785V13.2217Z" fill="white"/>
<path fill-rule="evenodd" clip-rule="evenodd" d="M22.7891 13.2217C22.7891 13.6516 23.1376 14.0001 23.5674 14.0001H25.0107C25.4406 14.0001 25.7891 13.6516 25.7891 13.2217V11.7785C25.7891 11.3486 25.4406 11.0001 25.0107 11.0001H23.5674C23.1376 11.0001 22.7891 11.3486 22.7891 11.7785V13.2217Z" fill="white"/>
<path fill-rule="evenodd" clip-rule="evenodd" d="M18.7891 17.2216C18.7891 17.6515 19.1376 18 19.5674 18H21.0107C21.4406 18 21.7891 17.6515 21.7891 17.2216V15.7784C21.7891 15.3485 21.4406 15 21.0107 15H19.5674C19.1376 15 18.7891 15.3485 18.7891 15.7784V17.2216Z" fill="white"/>
<path fill-rule="evenodd" clip-rule="evenodd" d="M18.7891 13.2217C18.7891 13.6516 19.1376 14.0001 19.5674 14.0001H21.0107C21.4406 14.0001 21.7891 13.6516 21.7891 13.2217V11.7785C21.7891 11.3486 21.4406 11.0001 21.0107 11.0001H19.5674C19.1376 11.0001 18.7891 11.3486 18.7891 11.7785V13.2217Z" fill="white"/>
<path fill-rule="evenodd" clip-rule="evenodd" d="M14.7891 17.2216C14.7891 17.6515 15.1376 18 15.5674 18H17.0107C17.4406 18 17.7891 17.6515 17.7891 17.2216V15.7784C17.7891 15.3485 17.4406 15 17.0107 15H15.5674C15.1376 15 14.7891 15.3485 14.7891 15.7784V17.2216Z" fill="white"/>
<path fill-rule="evenodd" clip-rule="evenodd" d="M22.7891 17.2216C22.7891 17.6515 23.1376 18 23.5674 18H25.0107C25.4406 18 25.7891 17.6515 25.7891 17.2216V15.7784C25.7891 15.3485 25.4406 15 25.0107 15H23.5674C23.1376 15 22.7891 15.3485 22.7891 15.7784V17.2216Z" fill="white"/>
<path fill-rule="evenodd" clip-rule="evenodd" d="M26.7891 17.2216C26.7891 17.6515 27.1376 18 27.5674 18H29.0107C29.4406 18 29.7891 17.6515 29.7891 17.2216V15.7784C29.7891 15.3485 29.4406 15 29.0107 15H27.5674C27.1376 15 26.7891 15.3485 26.7891 15.7784V17.2216Z" fill="white"/>
<path fill-rule="evenodd" clip-rule="evenodd" d="M26.7891 13.2217C26.7891 13.6516 27.1376 14.0001 27.5674 14.0001H29.0107C29.4406 14.0001 29.7891 13.6516 29.7891 13.2217V11.7785C29.7891 11.3486 29.4406 11.0001 29.0107 11.0001H27.5674C27.1376 11.0001 26.7891 11.3486 26.7891 11.7785V13.2217Z" fill="white"/>
<path fill-rule="evenodd" clip-rule="evenodd" d="M30.7891 17.2216C30.7891 17.6515 31.1376 18 31.5674 18H33.0107C33.4406 18 33.7891 17.6515 33.7891 17.2216V15.7784C33.7891 15.3485 33.4406 15 33.0107 15H31.5674C31.1376 15 30.7891 15.3485 30.7891 15.7784V17.2216Z" fill="white"/>
<path fill-rule="evenodd" clip-rule="evenodd" d="M18.7891 21.2217C18.7891 21.6516 19.1376 22.0001 19.5674 22.0001H21.0107C21.4406 22.0001 21.7891 21.6516 21.7891 21.2217V19.7785C21.7891 19.3486 21.4406 19.0001 21.0107 19.0001H19.5674C19.1376 19.0001 18.7891 19.3486 18.7891 19.7785V21.2217Z" fill="white"/>
<path fill-rule="evenodd" clip-rule="evenodd" d="M14.7891 21.2217C14.7891 21.6516 15.1376 22.0001 15.5674 22.0001H17.0107C17.4406 22.0001 17.7891 21.6516 17.7891 21.2217V19.7785C17.7891 19.3486 17.4406 19.0001 17.0107 19.0001H15.5674C15.1376 19.0001 14.7891 19.3486 14.7891 19.7785V21.2217Z" fill="white"/>
<path fill-rule="evenodd" clip-rule="evenodd" d="M14.7891 29.2217C14.7891 29.6516 15.1376 30.0001 15.5674 30.0001H17.0107C17.4406 30.0001 17.7891 29.6516 17.7891 29.2217V27.7785C17.7891 27.3486 17.4406 27.0001 17.0107 27.0001H15.5674C15.1376 27.0001 14.7891 27.3486 14.7891 27.7785V29.2217Z" fill="white"/>
<path fill-rule="evenodd" clip-rule="evenodd" d="M22.7891 21.2217C22.7891 21.6516 23.1376 22.0001 23.5674 22.0001H25.0107C25.4406 22.0001 25.7891 21.6516 25.7891 21.2217V19.7785C25.7891 19.3486 25.4406 19.0001 25.0107 19.0001H23.5674C23.1376 19.0001 22.7891 19.3486 22.7891 19.7785V21.2217Z" fill="white"/>
<path fill-rule="evenodd" clip-rule="evenodd" d="M26.7891 21.2217C26.7891 21.6516 27.1376 22.0001 27.5674 22.0001H29.0107C29.4406 22.0001 29.7891 21.6516 29.7891 21.2217V19.7785C29.7891 19.3486 29.4406 19.0001 29.0107 19.0001H27.5674C27.1376 19.0001 26.7891 19.3486 26.7891 19.7785V21.2217Z" fill="white"/>
<path fill-rule="evenodd" clip-rule="evenodd" d="M30.7891 21.2217C30.7891 21.6516 31.1376 22.0001 31.5674 22.0001H33.0107C33.4406 22.0001 33.7891 21.6516 33.7891 21.2217V19.7785C33.7891 19.3486 33.4406 19.0001 33.0107 19.0001H31.5674C31.1376 19.0001 30.7891 19.3486 30.7891 19.7785V21.2217Z" fill="white"/>
<path fill-rule="evenodd" clip-rule="evenodd" d="M30.7891 29.2217C30.7891 29.6516 31.1376 30.0001 31.5674 30.0001H33.0107C33.4406 30.0001 33.7891 29.6516 33.7891 29.2217V27.7785C33.7891 27.3486 33.4406 27.0001 33.0107 27.0001H31.5674C31.1376 27.0001 30.7891 27.3486 30.7891 27.7785V29.2217Z" fill="white"/>
<path fill-rule="evenodd" clip-rule="evenodd" d="M22.7891 25.2216C22.7891 25.6515 23.1376 26 23.5674 26H25.0107C25.4406 26 25.7891 25.6515 25.7891 25.2216V23.7784C25.7891 23.3485 25.4406 23 25.0107 23H23.5674C23.1376 23 22.7891 23.3485 22.7891 23.7784V25.2216Z" fill="white"/>
<path fill-rule="evenodd" clip-rule="evenodd" d="M18.7891 29.2217C18.7891 29.6516 19.1376 30.0001 19.5674 30.0001H21.0107C21.4406 30.0001 21.7891 29.6516 21.7891 29.2217V27.7785C21.7891 27.3486 21.4406 27.0001 21.0107 27.0001H19.5674C19.1376 27.0001 18.7891 27.3486 18.7891 27.7785V29.2217Z" fill="white"/>
<path fill-rule="evenodd" clip-rule="evenodd" d="M18.7891 25.2216C18.7891 25.6515 19.1376 26 19.5674 26H21.0107C21.4406 26 21.7891 25.6515 21.7891 25.2216V23.7784C21.7891 23.3485 21.4406 23 21.0107 23H19.5674C19.1376 23 18.7891 23.3485 18.7891 23.7784V25.2216Z" fill="white"/>
<path fill-rule="evenodd" clip-rule="evenodd" d="M22.7891 29.2217C22.7891 29.6516 23.1376 30.0001 23.5674 30.0001H25.0107C25.4406 30.0001 25.7891 29.6516 25.7891 29.2217V27.7785C25.7891 27.3486 25.4406 27.0001 25.0107 27.0001H23.5674C23.1376 27.0001 22.7891 27.3486 22.7891 27.7785V29.2217Z" fill="white"/>
<path fill-rule="evenodd" clip-rule="evenodd" d="M26.7891 29.2217C26.7891 29.6516 27.1376 30.0001 27.5674 30.0001H29.0107C29.4406 30.0001 29.7891 29.6516 29.7891 29.2217V27.7785C29.7891 27.3486 29.4406 27.0001 29.0107 27.0001H27.5674C27.1376 27.0001 26.7891 27.3486 26.7891 27.7785V29.2217Z" fill="white"/>
<path fill-rule="evenodd" clip-rule="evenodd" d="M26.7891 25.2216C26.7891 25.6515 27.1376 26 27.5674 26H29.0107C29.4406 26 29.7891 25.6515 29.7891 25.2216V23.7784C29.7891 23.3485 29.4406 23 29.0107 23H27.5674C27.1376 23 26.7891 23.3485 26.7891 23.7784V25.2216Z" fill="white"/>
<path fill-rule="evenodd" clip-rule="evenodd" d="M14.7891 33.2216C14.7891 33.6515 15.1376 34 15.5674 34H17.0107C17.4406 34 17.7891 33.6515 17.7891 33.2216V31.7784C17.7891 31.3485 17.4406 31 17.0107 31H15.5674C15.1376 31 14.7891 31.3485 14.7891 31.7784V33.2216Z" fill="white"/>
<path fill-rule="evenodd" clip-rule="evenodd" d="M10.7891 33.2216C10.7891 33.6515 11.1376 34 11.5674 34H13.0107C13.4406 34 13.7891 33.6515 13.7891 33.2216V31.7784C13.7891 31.3485 13.4406 31 13.0107 31H11.5674C11.1376 31 10.7891 31.3485 10.7891 31.7784V33.2216Z" fill="white"/>
<path fill-rule="evenodd" clip-rule="evenodd" d="M18.7891 33.2216C18.7891 33.6515 19.1376 34 19.5674 34H21.0107C21.4406 34 21.7891 33.6515 21.7891 33.2216V31.7784C21.7891 31.3485 21.4406 31 21.0107 31H19.5674C19.1376 31 18.7891 31.3485 18.7891 31.7784V33.2216Z" fill="white"/>
<path fill-rule="evenodd" clip-rule="evenodd" d="M22.7891 33.2216C22.7891 33.6515 23.1376 34 23.5674 34H25.0107C25.4406 34 25.7891 33.6515 25.7891 33.2216V31.7784C25.7891 31.3485 25.4406 31 25.0107 31H23.5674C23.1376 31 22.7891 31.3485 22.7891 31.7784V33.2216Z" fill="white"/>
<path fill-rule="evenodd" clip-rule="evenodd" d="M26.7891 33.2216C26.7891 33.6515 27.1376 34 27.5674 34H29.0107C29.4406 34 29.7891 33.6515 29.7891 33.2216V31.7784C29.7891 31.3485 29.4406 31 29.0107 31H27.5674C27.1376 31 26.7891 31.3485 26.7891 31.7784V33.2216Z" fill="white"/>
<path fill-rule="evenodd" clip-rule="evenodd" d="M30.7891 33.2216C30.7891 33.6515 31.1376 34 31.5674 34H33.0107C33.4406 34 33.7891 33.6515 33.7891 33.2216V31.7784C33.7891 31.3485 33.4406 31 33.0107 31H31.5674C31.1376 31 30.7891 31.3485 30.7891 31.7784V33.2216Z" fill="white"/>
<path fill-rule="evenodd" clip-rule="evenodd" d="M34.7891 33.2216C34.7891 33.6515 35.1376 34 35.5674 34H37.0107C37.4406 34 37.7891 33.6515 37.7891 33.2216V31.7784C37.7891 31.3485 37.4406 31 37.0107 31H35.5674C35.1376 31 34.7891 31.3485 34.7891 31.7784V33.2216Z" fill="white"/>
<path fill-rule="evenodd" clip-rule="evenodd" d="M34.7891 13.2217C34.7891 13.6516 35.1376 14.0001 35.5674 14.0001H37.0107C37.4406 14.0001 37.7891 13.6516 37.7891 13.2217V11.7785C37.7891 11.3486 37.4406 11.0001 37.0107 11.0001H35.5674C35.1376 11.0001 34.7891 11.3486 34.7891 11.7785V13.2217Z" fill="white"/>
<path fill-rule="evenodd" clip-rule="evenodd" d="M14.7891 37.2217C14.7891 37.6516 15.1376 38.0001 15.5674 38.0001H17.0107C17.4406 38.0001 17.7891 37.6516 17.7891 37.2217V35.7785C17.7891 35.3486 17.4406 35.0001 17.0107 35.0001H15.5674C15.1376 35.0001 14.7891 35.3486 14.7891 35.7785V37.2217Z" fill="white"/>
<path fill-rule="evenodd" clip-rule="evenodd" d="M14.7891 41.2216C14.7891 41.6515 15.1376 42 15.5674 42H17.0107C17.4406 42 17.7891 41.6515 17.7891 41.2216V39.7784C17.7891 39.3485 17.4406 39 17.0107 39H15.5674C15.1376 39 14.7891 39.3485 14.7891 39.7784V41.2216Z" fill="white"/>
<path fill-rule="evenodd" clip-rule="evenodd" d="M18.7891 37.2217C18.7891 37.6516 19.1376 38.0001 19.5674 38.0001H21.0107C21.4406 38.0001 21.7891 37.6516 21.7891 37.2217V35.7785C21.7891 35.3486 21.4406 35.0001 21.0107 35.0001H19.5674C19.1376 35.0001 18.7891 35.3486 18.7891 35.7785V37.2217Z" fill="white"/>
<path fill-rule="evenodd" clip-rule="evenodd" d="M18.7891 41.2216C18.7891 41.6515 19.1376 42 19.5674 42H21.0107C21.4406 42 21.7891 41.6515 21.7891 41.2216V39.7784C21.7891 39.3485 21.4406 39 21.0107 39H19.5674C19.1376 39 18.7891 39.3485 18.7891 39.7784V41.2216Z" fill="white"/>
<path fill-rule="evenodd" clip-rule="evenodd" d="M22.7891 37.2217C22.7891 37.6516 23.1376 38.0001 23.5674 38.0001H25.0107C25.4406 38.0001 25.7891 37.6516 25.7891 37.2217V35.7785C25.7891 35.3486 25.4406 35.0001 25.0107 35.0001H23.5674C23.1376 35.0001 22.7891 35.3486 22.7891 35.7785V37.2217Z" fill="white"/>
<path fill-rule="evenodd" clip-rule="evenodd" d="M22.7891 41.2216C22.7891 41.6515 23.1376 42 23.5674 42H25.0107C25.4406 42 25.7891 41.6515 25.7891 41.2216V39.7784C25.7891 39.3485 25.4406 39 25.0107 39H23.5674C23.1376 39 22.7891 39.3485 22.7891 39.7784V41.2216Z" fill="white"/>
<path fill-rule="evenodd" clip-rule="evenodd" d="M26.7891 37.2217C26.7891 37.6516 27.1376 38.0001 27.5674 38.0001H29.0107C29.4406 38.0001 29.7891 37.6516 29.7891 37.2217V35.7785C29.7891 35.3486 29.4406 35.0001 29.0107 35.0001H27.5674C27.1376 35.0001 26.7891 35.3486 26.7891 35.7785V37.2217Z" fill="white"/>
<path fill-rule="evenodd" clip-rule="evenodd" d="M26.7891 41.2216C26.7891 41.6515 27.1376 42 27.5674 42H29.0107C29.4406 42 29.7891 41.6515 29.7891 41.2216V39.7784C29.7891 39.3485 29.4406 39 29.0107 39H27.5674C27.1376 39 26.7891 39.3485 26.7891 39.7784V41.2216Z" fill="white"/>
<path fill-rule="evenodd" clip-rule="evenodd" d="M30.7891 37.2217C30.7891 37.6516 31.1376 38.0001 31.5674 38.0001H33.0107C33.4406 38.0001 33.7891 37.6516 33.7891 37.2217V35.7785C33.7891 35.3486 33.4406 35.0001 33.0107 35.0001H31.5674C31.1376 35.0001 30.7891 35.3486 30.7891 35.7785V37.2217Z" fill="white"/>
<path fill-rule="evenodd" clip-rule="evenodd" d="M30.7891 41.2216C30.7891 41.6515 31.1376 42 31.5674 42H33.0107C33.4406 42 33.7891 41.6515 33.7891 41.2216V39.7784C33.7891 39.3485 33.4406 39 33.0107 39H31.5674C31.1376 39 30.7891 39.3485 30.7891 39.7784V41.2216Z" fill="white"/>
<path fill-rule="evenodd" clip-rule="evenodd" d="M34.7891 37.2217C34.7891 37.6516 35.1376 38.0001 35.5674 38.0001H37.0107C37.4406 38.0001 37.7891 37.6516 37.7891 37.2217V35.7785C37.7891 35.3486 37.4406 35.0001 37.0107 35.0001H35.5674C35.1376 35.0001 34.7891 35.3486 34.7891 35.7785V37.2217Z" fill="white"/>
<path fill-rule="evenodd" clip-rule="evenodd" d="M9.01068 34C9.44057 34 9.78906 33.6515 9.78906 33.2216V31.7784C9.78906 31.3485 9.44057 31 9.01068 31H7.56744C7.13755 31 6.78906 31.3485 6.78906 31.7784V33.2216C6.78906 33.6515 7.13755 34 7.56744 34H9.01068Z" fill="white"/>
<path fill-rule="evenodd" clip-rule="evenodd" d="M9.01068 30.0001C9.44057 30.0001 9.78906 29.6516 9.78906 29.2217V27.7785C9.78906 27.3486 9.44057 27.0001 9.01068 27.0001H7.56744C7.13755 27.0001 6.78906 27.3486 6.78906 27.7785V29.2217C6.78906 29.6516 7.13755 30.0001 7.56744 30.0001H9.01068Z" fill="white"/>
<path fill-rule="evenodd" clip-rule="evenodd" d="M9.01068 26C9.44057 26 9.78906 25.6515 9.78906 25.2216V23.7784C9.78906 23.3485 9.44057 23 9.01068 23H7.56744C7.13755 23 6.78906 23.3485 6.78906 23.7784V25.2216C6.78906 25.6515 7.13755 26 7.56744 26H9.01068Z" fill="white"/>
<path fill-rule="evenodd" clip-rule="evenodd" d="M9.01068 22.0001C9.44057 22.0001 9.78906 21.6516 9.78906 21.2217V19.7785C9.78906 19.3486 9.44057 19.0001 9.01068 19.0001H7.56744C7.13755 19.0001 6.78906 19.3486 6.78906 19.7785V21.2217C6.78906 21.6516 7.13755 22.0001 7.56744 22.0001H9.01068Z" fill="white"/>
<path fill-rule="evenodd" clip-rule="evenodd" d="M9.01068 18C9.44057 18 9.78906 17.6515 9.78906 17.2216V15.7784C9.78906 15.3485 9.44057 15 9.01068 15H7.56744C7.13755 15 6.78906 15.3485 6.78906 15.7784V17.2216C6.78906 17.6515 7.13755 18 7.56744 18H9.01068Z" fill="white"/>
<path fill-rule="evenodd" clip-rule="evenodd" d="M13.0107 38.0001C13.4406 38.0001 13.7891 37.6516 13.7891 37.2217V35.7785C13.7891 35.3486 13.4406 35.0001 13.0107 35.0001H11.5674C11.1376 35.0001 10.7891 35.3486 10.7891 35.7785V37.2217C10.7891 37.6516 11.1376 38.0001 11.5674 38.0001H13.0107Z" fill="white"/>
<path fill-rule="evenodd" clip-rule="evenodd" d="M41.0107 34C41.4406 34 41.7891 33.6515 41.7891 33.2216V31.7784C41.7891 31.3485 41.4406 31 41.0107 31H39.5674C39.1376 31 38.7891 31.3485 38.7891 31.7784V33.2216C38.7891 33.6515 39.1376 34 39.5674 34H41.0107Z" fill="white"/>
<path fill-rule="evenodd" clip-rule="evenodd" d="M41.0107 30.0001C41.4406 30.0001 41.7891 29.6516 41.7891 29.2217V27.7785C41.7891 27.3486 41.4406 27.0001 41.0107 27.0001H39.5674C39.1376 27.0001 38.7891 27.3486 38.7891 27.7785V29.2217C38.7891 29.6516 39.1376 30.0001 39.5674 30.0001H41.0107Z" fill="white"/>
<path fill-rule="evenodd" clip-rule="evenodd" d="M41.0107 26C41.4406 26 41.7891 25.6515 41.7891 25.2216V23.7784C41.7891 23.3485 41.4406 23 41.0107 23H39.5674C39.1376 23 38.7891 23.3485 38.7891 23.7784V25.2216C38.7891 25.6515 39.1376 26 39.5674 26H41.0107Z" fill="white"/>
<path fill-rule="evenodd" clip-rule="evenodd" d="M41.0107 22.0001C41.4406 22.0001 41.7891 21.6516 41.7891 21.2217V19.7785C41.7891 19.3486 41.4406 19.0001 41.0107 19.0001H39.5674C39.1376 19.0001 38.7891 19.3486 38.7891 19.7785V21.2217C38.7891 21.6516 39.1376 22.0001 39.5674 22.0001H41.0107Z" fill="white"/>
<path fill-rule="evenodd" clip-rule="evenodd" d="M41.0107 18C41.4406 18 41.7891 17.6515 41.7891 17.2216V15.7784C41.7891 15.3485 41.4406 15 41.0107 15H39.5674C39.1376 15 38.7891 15.3485 38.7891 15.7784V17.2216C38.7891 17.6515 39.1376 18 39.5674 18H41.0107Z" fill="white"/>
</mask>
<g mask="url(#mask0_10055_25271)">
<rect x="6.76562" y="6.97998" width="35" height="35" fill="url(#paint0_linear_10055_25271)"/>
</g>
</g>
<path fill-rule="evenodd" clip-rule="evenodd" d="M96.8 32.75C98.5673 32.75 100 31.3173 100 29.55C100 29.1082 99.6418 28.75 99.2 28.75H97C96.4477 28.75 96 29.1977 96 29.75V31.95C96 32.3918 96.3582 32.75 96.8 32.75Z" fill="#00AA5B"/>
<path fill-rule="evenodd" clip-rule="evenodd" d="M99 28.25C99.5523 28.25 100 27.8023 100 27.25V25.25C100 24.6977 99.5523 24.25 99 24.25H97C96.4477 24.25 96 24.6977 96 25.25V27.25C96 27.8023 96.4477 28.25 97 28.25H99Z" fill="#00AA5B"/>
<path fill-rule="evenodd" clip-rule="evenodd" d="M99 23.75C99.5523 23.75 100 23.3023 100 22.75V20.75C100 20.1977 99.5523 19.75 99 19.75H97C96.4477 19.75 96 20.1977 96 20.75V22.75C96 23.3023 96.4477 23.75 97 23.75H99Z" fill="#00AA5B"/>
<path fill-rule="evenodd" clip-rule="evenodd" d="M99 19.25C99.5523 19.25 100 18.8023 100 18.25V16.05C100 15.6082 99.6418 15.25 99.2 15.25C97.4327 15.25 96 16.6827 96 18.45C96 18.8918 96.3582 19.25 96.8 19.25H99Z" fill="#00AA5B"/>
<path fill-rule="evenodd" clip-rule="evenodd" d="M81 32.75C81.5523 32.75 82 32.3023 82 31.75V29.75C82 29.1977 81.5523 28.75 81 28.75H79C78.4477 28.75 78 29.1977 78 29.75V31.75C78 32.3023 78.4477 32.75 79 32.75H81Z" fill="#00AA5B"/>
<path fill-rule="evenodd" clip-rule="evenodd" d="M81 28.25C81.5523 28.25 82 27.8023 82 27.25V25.25C82 24.6977 81.5523 24.25 81 24.25H79C78.4477 24.25 78 24.6977 78 25.25V27.25C78 27.8023 78.4477 28.25 79 28.25H81Z" fill="#00AA5B"/>
<path fill-rule="evenodd" clip-rule="evenodd" d="M81 23.75C81.5523 23.75 82 23.3023 82 22.75V20.75C82 20.1977 81.5523 19.75 81 19.75H79C78.4477 19.75 78 20.1977 78 20.75V22.75C78 23.3023 78.4477 23.75 79 23.75H81Z" fill="#00AA5B"/>
<path fill-rule="evenodd" clip-rule="evenodd" d="M85.5 19.25C86.0523 19.25 86.5 18.8023 86.5 18.25V16.25C86.5 15.6977 86.0523 15.25 85.5 15.25H83.5C82.9477 15.25 82.5 15.6977 82.5 16.25V18.25C82.5 18.8023 82.9477 19.25 83.5 19.25H85.5Z" fill="#00AA5B"/>
<path fill-rule="evenodd" clip-rule="evenodd" d="M81 19.25C81.5523 19.25 82 18.8023 82 18.25V16.05C82 15.6082 81.6418 15.25 81.2 15.25C79.4327 15.25 78 16.6827 78 18.45C78 18.8918 78.3582 19.25 78.8 19.25H81Z" fill="#00AA5B"/>
<path fill-rule="evenodd" clip-rule="evenodd" d="M90 23.75C90.5523 23.75 91 23.3023 91 22.75V20.75C91 20.1977 90.5523 19.75 90 19.75H88C87.4477 19.75 87 20.1977 87 20.75V22.75C87 23.3023 87.4477 23.75 88 23.75H90Z" fill="#00AA5B"/>
<path fill-rule="evenodd" clip-rule="evenodd" d="M90 28.25C90.5523 28.25 91 27.8023 91 27.25V25.25C91 24.6977 90.5523 24.25 90 24.25H88C87.4477 24.25 87 24.6977 87 25.25V27.25C87 27.8023 87.4477 28.25 88 28.25H90Z" fill="#00AA5B"/>
<path fill-rule="evenodd" clip-rule="evenodd" d="M87.8 32.75C89.5673 32.75 91 31.3173 91 29.55C91 29.1082 90.6418 28.75 90.2 28.75H88C87.4477 28.75 87 29.1977 87 29.75V31.95C87 32.3918 87.3582 32.75 87.8 32.75Z" fill="#00AA5B"/>
<path fill-rule="evenodd" clip-rule="evenodd" d="M85.5 32.75C86.0523 32.75 86.5 32.3023 86.5 31.75V29.75C86.5 29.1977 86.0523 28.75 85.5 28.75H83.5C82.9477 28.75 82.5 29.1977 82.5 29.75V31.75C82.5 32.3023 82.9477 32.75 83.5 32.75H85.5Z" fill="#00AA5B"/>
<path fill-rule="evenodd" clip-rule="evenodd" d="M107 32.75C107.552 32.75 108 32.3023 108 31.75V29.75C108 29.1977 107.552 28.75 107 28.75H105C104.448 28.75 104 29.1977 104 29.75V31.75C104 32.3023 104.448 32.75 105 32.75H107Z" fill="#00AA5B"/>
<path fill-rule="evenodd" clip-rule="evenodd" d="M107 28.25C107.552 28.25 108 27.8023 108 27.25V25.25C108 24.6977 107.552 24.25 107 24.25H105C104.448 24.25 104 24.6977 104 25.25V27.25C104 27.8023 104.448 28.25 105 28.25H107Z" fill="#00AA5B"/>
<path fill-rule="evenodd" clip-rule="evenodd" d="M107 23.75C107.552 23.75 108 23.3023 108 22.75V20.75C108 20.1977 107.552 19.75 107 19.75H105C104.448 19.75 104 20.1977 104 20.75V22.75C104 23.3023 104.448 23.75 105 23.75H107Z" fill="#00AA5B"/>
<path fill-rule="evenodd" clip-rule="evenodd" d="M111.5 19.25C112.052 19.25 112.5 18.8023 112.5 18.25V16.25C112.5 15.6977 112.052 15.25 111.5 15.25H109.5C108.948 15.25 108.5 15.6977 108.5 16.25V18.25C108.5 18.8023 108.948 19.25 109.5 19.25H111.5Z" fill="#00AA5B"/>
<path fill-rule="evenodd" clip-rule="evenodd" d="M107 19.25C107.552 19.25 108 18.8023 108 18.25V16.05C108 15.6082 107.642 15.25 107.2 15.25C105.433 15.25 104 16.6827 104 18.45C104 18.8918 104.358 19.25 104.8 19.25H107Z" fill="#00AA5B"/>
<path fill-rule="evenodd" clip-rule="evenodd" d="M116 23.75C116.552 23.75 117 23.3023 117 22.75V20.75C117 20.1977 116.552 19.75 116 19.75H114C113.448 19.75 113 20.1977 113 20.75V22.75C113 23.3023 113.448 23.75 114 23.75H116Z" fill="#00AA5B"/>
<path fill-rule="evenodd" clip-rule="evenodd" d="M116 28.25C116.552 28.25 117 27.8023 117 27.25V25.25C117 24.6977 116.552 24.25 116 24.25H114C113.448 24.25 113 24.6977 113 25.25V27.25C113 27.8023 113.448 28.25 114 28.25H116Z" fill="#00AA5B"/>
<path fill-rule="evenodd" clip-rule="evenodd" d="M113.8 32.75C115.567 32.75 117 31.3173 117 29.55C117 29.1082 116.642 28.75 116.2 28.75H114C113.448 28.75 113 29.1977 113 29.75V31.95C113 32.3918 113.358 32.75 113.8 32.75Z" fill="#00AA5B"/>
<path fill-rule="evenodd" clip-rule="evenodd" d="M111.5 32.75C112.052 32.75 112.5 32.3023 112.5 31.75V29.75C112.5 29.1977 112.052 28.75 111.5 28.75H109.5C108.948 28.75 108.5 29.1977 108.5 29.75V31.75C108.5 32.3023 108.948 32.75 109.5 32.75H111.5Z" fill="#00AA5B"/>
<path fill-rule="evenodd" clip-rule="evenodd" d="M63 23.75C63.5523 23.75 64 23.3023 64 22.75V20.75C64 20.1977 63.5523 19.75 63 19.75H61C60.4477 19.75 60 20.1977 60 20.75V22.75C60 23.3023 60.4477 23.75 61 23.75H63Z" fill="#00AA5B"/>
<path fill-rule="evenodd" clip-rule="evenodd" d="M63 28.25C63.5523 28.25 64 27.8023 64 27.25V25.25C64 24.6977 63.5523 24.25 63 24.25H61C60.4477 24.25 60 24.6977 60 25.25V27.25C60 27.8023 60.4477 28.25 61 28.25H63Z" fill="#00AA5B"/>
<path fill-rule="evenodd" clip-rule="evenodd" d="M63.2 32.75C63.6418 32.75 64 32.3918 64 31.95V29.75C64 29.1977 63.5523 28.75 63 28.75H60.8C60.3582 28.75 60 29.1082 60 29.55C60 31.3173 61.4327 32.75 63.2 32.75Z" fill="#00AA5B"/>
<path fill-rule="evenodd" clip-rule="evenodd" d="M67.5 32.75C68.0523 32.75 68.5 32.3023 68.5 31.75V29.75C68.5 29.1977 68.0523 28.75 67.5 28.75H65.5C64.9477 28.75 64.5 29.1977 64.5 29.75V31.75C64.5 32.3023 64.9477 32.75 65.5 32.75H67.5Z" fill="#00AA5B"/>
<path fill-rule="evenodd" clip-rule="evenodd" d="M69.8 32.75C71.5673 32.75 73 31.3173 73 29.55C73 29.1082 72.6418 28.75 72.2 28.75H70C69.4477 28.75 69 29.1977 69 29.75V31.95C69 32.3919 69.3582 32.75 69.8 32.75Z" fill="#00AA5B"/>
<path fill-rule="evenodd" clip-rule="evenodd" d="M72 28.25C72.5523 28.25 73 27.8023 73 27.25V25.25C73 24.6977 72.5523 24.25 72 24.25H70C69.4477 24.25 69 24.6977 69 25.25V27.25C69 27.8023 69.4477 28.25 70 28.25H72Z" fill="#00AA5B"/>
<path fill-rule="evenodd" clip-rule="evenodd" d="M72 23.75C72.5523 23.75 73 23.3023 73 22.75V20.75C73 20.1977 72.5523 19.75 72 19.75H70C69.4477 19.75 69 20.1977 69 20.75V22.75C69 23.3023 69.4477 23.75 70 23.75H72Z" fill="#00AA5B"/>
<path fill-rule="evenodd" clip-rule="evenodd" d="M63 19.25C63.5523 19.25 64 18.8023 64 18.25V16.05C64 15.6082 63.6418 15.25 63.2 15.25C61.4327 15.25 60 16.6827 60 18.45C60 18.8918 60.3582 19.25 60.8 19.25H63Z" fill="#00AA5B"/>
<path fill-rule="evenodd" clip-rule="evenodd" d="M72 19.25C72.5523 19.25 73 18.8023 73 18.25V16.05C73 15.6082 72.6418 15.25 72.2 15.25C70.4327 15.25 69 16.6827 69 18.45C69 18.8918 69.3582 19.25 69.8 19.25H72Z" fill="#00AA5B"/>
<defs>
<filter id="filter0_d_10055_25271" x="6.5296" y="7" width="35.4955" height="35.4989" filterUnits="userSpaceOnUse" color-interpolation-filters="sRGB">
<feFlood flood-opacity="0" result="BackgroundImageFix"/>
<feColorMatrix in="SourceAlpha" type="matrix" values="0 0 0 0 0 0 0 0 0 0 0 0 0 0 0 0 0 0 127 0" result="hardAlpha"/>
<feOffset dy="0.259459"/>
<feGaussianBlur stdDeviation="0.12973"/>
<feComposite in2="hardAlpha" operator="out"/>
<feColorMatrix type="matrix" values="0 0 0 0 0.139757 0 0 0 0 0.670833 0 0 0 0 0.251283 0 0 0 1 0"/>
<feBlend mode="normal" in2="BackgroundImageFix" result="effect1_dropShadow_10055_25271"/>
<feBlend mode="normal" in="SourceGraphic" in2="effect1_dropShadow_10055_25271" result="shape"/>
</filter>
<linearGradient id="paint0_linear_10055_25271" x1="35.9323" y1="36.5112" x2="11.8698" y2="12.4487" gradientUnits="userSpaceOnUse">
<stop stop-color="#008C3D"/>
<stop offset="1" stop-color="#0AC846"/>
</linearGradient>
</defs>
</svg>
